<svg data-v-0dd9719b="" version="1.0" xmlns="http://www.w3.org/2000/svg" xmlns:xlink="http://www.w3.org/1999/xlink" width="100%" height="100%" viewBox="0 0 340.000000 250.000000" preserveAspectRatio="xMidYMid meet" color-interpolation-filters="sRGB" style="margin: auto;"> <rect data-v-0dd9719b="" x="0" y="0" width="100%" height="100%" fill="#fff" fill-opacity="1" class="background"></rect> <rect data-v-0dd9719b="" x="0" y="0" width="100%" height="100%" fill="url(#watermark)" fill-opacity="1" class="watermarklayer"></rect> <g data-v-0dd9719b="" fill="#0f0f0f" class="icon-text-wrapper icon-svg-group iconsvg" transform="translate(48.15135955810547,90.57501224876125)"><g class="iconsvg-imagesvg" transform="translate(0,0)"><g><rect fill="#0f0f0f" fill-opacity="0" stroke-width="2" x="0" y="0" width="60.00000000000001" height="68.84997590250845" class="image-rect"></rect> <svg x="0" y="0" width="60.00000000000001" height="68.84997590250845" filtersec="colorsb7997798253" class="image-svg-svg primary" style="overflow: visible;"><svg xmlns="http://www.w3.org/2000/svg" viewBox="2.9800002574920654 0.8300000429153442 85.70001220703125 98.3412094116211"><path fill="#0F0F0F" d="M88.67 26.35c-.01-.12-.02-.25-.05-.37l-.03-.12a1.82 1.82 0 0 0-.47-.82c-.03-.03-.06-.06-.1-.09-.09-.08-.19-.16-.29-.22a.265.265 0 0 1-.06-.05L46.84 1.1c-.02-.01-.05-.02-.07-.03-.11-.06-.22-.1-.34-.14-.04-.01-.08-.03-.12-.04-.16-.03-.31-.06-.48-.06s-.32.03-.47.06c-.04.01-.08.03-.12.04-.12.04-.23.08-.34.14-.02.01-.05.02-.07.03L3.99 24.68c-.02.01-.04.03-.06.05-.11.07-.2.14-.3.23-.03.03-.06.05-.09.08-.11.11-.21.24-.29.38a1.854 1.854 0 0 0-.21.57c-.03.11-.04.23-.05.35 0 .03-.01.05-.01.08v47.15c0 .03.01.05.01.08 0 .12.02.24.05.36l.03.13c.04.15.1.3.18.44.09.16.2.3.33.43.07.07.16.12.23.18.06.05.11.1.18.14L44.83 98.9c.02.01.05.02.08.03.11.06.22.1.33.14.04.01.08.03.13.04a1.835 1.835 0 0 0 .94 0c.04-.01.08-.03.13-.04.12-.04.23-.08.33-.14.02-.01.05-.02.08-.03l40.83-23.57c.07-.04.12-.09.18-.14.08-.06.16-.11.23-.18.13-.12.23-.26.32-.41v-.01c.08-.14.14-.29.18-.44l.03-.12c.03-.12.04-.24.05-.36 0-.03.01-.05.01-.08V26.43c0-.03-.01-.06-.01-.08zM47.85 6.34l34.78 20.08-14.42 8.32-20.36-11.75V6.34zm-4.03 0v16.65L23.45 34.75 9.03 26.43 43.82 6.34zM7.02 29.92l14.42 8.32v23.52L7.02 70.08V29.92zm36.8 63.74L9.03 73.58l14.42-8.32 20.37 11.76v16.64zm0-21.31L25.47 61.76V40.57l18.35 10.59v21.19zm2.01-24.68L27.48 37.08l18.35-10.59 18.35 10.59-18.35 10.59zm20.37-7.1v21.19L47.85 72.35V51.16L66.2 40.57zM47.85 93.66V77.01l20.37-11.76 14.42 8.32-34.79 20.09zm36.8-23.58l-14.42-8.32V38.24l14.42-8.32v40.16z"></path></svg></svg> <!----></g></g> <g transform="translate(67,10.486238479614258)"><g data-gra="path-name" fill-rule="" class="tp-name iconsvg-namesvg" transform="translate(0,0)"><g transform="scale(1)"><g><path d="M29.16 0.25L11.05 0.25Q10.12 0.25 9.54-0.32 8.96-0.9 8.96-1.84L8.96-1.84 8.96-11.48Q6.84-8.68 4.14-6.3L4.14-6.3Q3.02-5.4 2.12-6.37L2.12-6.37Q1.19-7.42 2.41-8.42L2.41-8.42Q5.9-11.41 8.71-15.95L8.71-15.95Q11.23-20.02 12.78-24.73L12.78-24.73 3.92-24.73Q2.63-24.73 2.63-26.06L2.63-26.06Q2.63-27.36 3.92-27.36L3.92-27.36 32.15-27.36Q33.44-27.36 33.44-26.06L33.44-26.06Q33.44-24.73 32.15-24.73L32.15-24.73 15.8-24.73Q14.04-19.73 11.52-15.37L11.52-15.37 29.16-15.37Q30.1-15.37 30.67-14.8 31.25-14.22 31.25-13.28L31.25-13.28 31.25-1.84Q31.25-0.9 30.67-0.32 30.1 0.25 29.16 0.25L29.16 0.25ZM12.35-2.34L12.35-2.34 27.76-2.34Q28.51-2.34 28.51-3.1L28.51-3.1 28.51-12.06Q28.51-12.82 27.76-12.82L27.76-12.82 11.59-12.82 11.59-3.1Q11.59-2.34 12.35-2.34ZM51.16 2.81Q50.8 2.84 50 2.81L50 2.81Q49.57 2.81 49.36 2.81L49.36 2.81Q48.06 2.74 47.77 1.76L47.77 1.76Q47.3 0.22 49.43 0.32L49.43 0.32Q49.86 0.36 50.62 0.36L50.62 0.36Q52.27 0.36 53.06-0.32L53.06-0.32Q54.07-1.08 54.43-2.88L54.43-2.88Q54.79-4.75 54.25-6.98L54.25-6.98Q51.59-4.75 47.84-2.66L47.84-2.66Q44.21-0.61 40.61 0.72L40.61 0.72Q39.56 1.08 38.99 0.14L38.99 0.14Q38.56-0.54 38.74-0.95 38.92-1.37 39.74-1.62L39.74-1.62Q43.52-2.88 47.3-4.97L47.3-4.97Q51.12-7.09 53.46-9.32L53.46-9.32Q53.06-10.3 52.24-11.63L52.24-11.63Q50.22-10.15 47.34-8.57L47.34-8.57Q44.5-7.06 41.87-6.01L41.87-6.01Q40.86-5.62 40.28-6.48L40.28-6.48Q39.82-7.16 39.98-7.54 40.14-7.92 40.93-8.17L40.93-8.17Q43.63-9.07 46.4-10.48L46.4-10.48Q49.25-11.88 51.01-13.25L51.01-13.25Q50.18-14.15 49.36-14.87L49.36-14.87Q45.9-13.1 41.65-11.77L41.65-11.77Q40.68-11.45 40.07-12.28L40.07-12.28Q39.17-13.54 40.79-13.97L40.79-13.97Q47.41-15.8 51.55-18.54L51.55-18.54 45.11-18.54Q43.96-18.54 43.96-19.69 43.96-20.84 45.11-20.84L45.11-20.84 62.71-20.84Q63.86-20.84 63.86-19.69 63.86-18.54 62.71-18.54L62.71-18.54 57.6-18.54Q58.39-15.59 59.87-12.53L59.87-12.53Q63.04-14.51 65.52-16.6L65.52-16.6Q66.35-17.35 67.28-16.52L67.28-16.52Q68.36-15.55 67.28-14.65L67.28-14.65Q64.87-12.82 60.98-10.48L60.98-10.48Q64.08-5.51 68.44-3.17L68.44-3.17Q70.13-2.41 69.08-1.04L69.08-1.04Q68.33-0.04 67.14-0.65L67.14-0.65Q58.61-5.4 55.26-18.54L55.26-18.54 55.19-18.54Q53.6-17.21 51.55-16.02L51.55-16.02Q54.76-13.21 56.23-9.36L56.23-9.36Q57.53-5.9 57.13-2.74L57.13-2.74Q56.74 0.36 54.94 1.62L54.94 1.62Q54.07 2.3 53.21 2.56L53.21 2.56Q52.38 2.81 51.16 2.81L51.16 2.81ZM40.68-19.84L40.68-19.84Q39.38-19.84 39.38-21.13L39.38-21.13 39.38-24.84Q39.38-25.78 39.96-26.35 40.54-26.93 41.47-26.93L41.47-26.93 52.63-26.93 52.63-28.76Q52.63-30.1 53.96-30.1L53.96-30.1Q55.3-30.1 55.3-28.76L55.3-28.76 55.3-26.93 66.74-26.93Q67.68-26.93 68.26-26.35 68.83-25.78 68.83-24.84L68.83-24.84 68.83-21.17Q68.83-19.84 67.5-19.84L67.5-19.84Q66.13-19.84 66.13-21.17L66.13-21.17 66.13-23.69Q66.13-24.44 65.38-24.44L65.38-24.44 42.73-24.44Q41.98-24.44 41.98-23.69L41.98-23.69 41.98-21.13Q41.98-19.84 40.68-19.84ZM76.36 1.4Q75.67 2.77 74.48 1.98L74.48 1.98Q73.44 1.26 74.09 0L74.09 0Q76.61-5.54 76.61-16.2L76.61-16.2 76.61-23.4Q76.61-24.34 77.18-24.91 77.76-25.49 78.7-25.49L78.7-25.49 89.68-25.49 89.68-28.76Q89.68-30.1 91.04-30.1L91.04-30.1Q92.38-30.1 92.38-28.76L92.38-28.76 92.38-25.49 104.76-25.49Q106.02-25.49 106.02-24.23L106.02-24.23Q106.02-22.93 104.76-22.93L104.76-22.93 79.96-22.93Q79.2-22.93 79.2-22.18L79.2-22.18 79.2-16.2Q79.2-4.93 76.36 1.4L76.36 1.4ZM104.8 1.62L81 1.62Q79.74 1.62 79.74 0.36L79.74 0.36Q79.74-0.94 81-0.94L81-0.94 91.44-0.94 91.44-11.77 83.41-11.77Q82.12-11.77 82.12-13.07 82.12-14.36 83.41-14.36L83.41-14.36 91.44-14.36 91.44-20.56Q91.44-21.89 92.81-21.89L92.81-21.89Q94.14-21.89 94.14-20.56L94.14-20.56 94.14-14.36 102.96-14.36Q104.26-14.36 104.26-13.07 104.26-11.77 102.96-11.77L102.96-11.77 94.14-11.77 94.14-0.94 104.8-0.94Q106.06-0.94 106.06 0.36L106.06 0.36Q106.06 1.62 104.8 1.62L104.8 1.62ZM124.24 2.7L124.24 2.7Q123.01 2.7 123.01 1.51L123.01 1.51 123.01-19.4Q123.01-20.34 123.59-20.92 124.16-21.49 125.1-21.49L125.1-21.49 130.79-21.49 130.79-26.06 123.44-26.06Q122.18-26.06 122.18-27.32 122.18-28.58 123.44-28.58L123.44-28.58 140.69-28.58Q141.95-28.58 141.95-27.32 141.95-26.06 140.69-26.06L140.69-26.06 133.27-26.06 133.27-21.49 139.39-21.49Q140.33-21.49 140.9-20.92 141.48-20.34 141.48-19.4L141.48-19.4 141.48-0.22Q141.48 1.69 140.26 2.27L140.26 2.27Q139.25 2.63 136.98 2.7L136.98 2.7Q135.54 2.7 135.18 1.76L135.18 1.76Q134.93 1.04 135.43 0.68L135.43 0.68Q135.86 0.36 136.73 0.4L136.73 0.4Q137.56 0.4 138.38 0.4L138.38 0.4Q139 0.36 139-0.29L139-0.29 139-18.29Q139-19.04 138.24-19.04L138.24-19.04 133.38-19.04Q134.6-11.59 137.7-8.39L137.7-8.39Q138.24-7.92 138.26-7.58 138.28-7.24 137.81-6.7 137.34-6.16 137-6.14 136.66-6.12 136.15-6.59L136.15-6.59Q133.45-9.5 132.08-15.66L132.08-15.66Q130.97-9.32 128.2-6.34L128.2-6.34Q127.69-5.9 127.35-5.92 127.01-5.94 126.56-6.46 126.11-6.98 126.14-7.34 126.18-7.7 126.68-8.17L126.68-8.17Q129.71-11.3 130.68-19.04L130.68-19.04 126.18-19.04Q125.42-19.04 125.42-18.29L125.42-18.29 125.42 1.51Q125.42 2.7 124.24 2.7ZM112.43 1.48Q111.28 2.7 110.38 1.69L110.38 1.69Q109.55 0.76 110.63-0.4L110.63-0.4Q113.58-3.78 114.7-8.6L114.7-8.6Q115.49-12.13 115.49-17.68L115.49-17.68 115.49-28.44Q115.49-29.63 116.71-29.63L116.71-29.63Q117.9-29.63 117.9-28.44L117.9-28.44 117.9-17.64Q117.9-12.96 117.4-9.65L117.4-9.65Q119.02-7.88 122.29-3.92L122.29-3.92Q122.65-3.46 122.54-3.17L122.54-3.17Q122.51-2.99 122-2.48L122-2.48Q121.43-1.87 121.1-1.87L121.1-1.87Q120.71-1.84 120.28-2.45L120.28-2.45Q119.38-3.78 116.86-6.95L116.86-6.95Q115.6-2.09 112.43 1.48L112.43 1.48ZM111.78-14Q111.31-13.28 110.56-13.68L110.56-13.68Q109.55-14.15 110.05-15.01L110.05-15.01Q111.35-17.42 111.67-21.74L111.67-21.74Q111.74-22.79 112.75-22.68L112.75-22.68Q113.65-22.57 113.62-21.71L113.62-21.71Q113.51-19.37 113.04-17.5L113.04-17.5Q112.57-15.41 111.78-14L111.78-14ZM120.35-16.49Q119.95-15.73 119.12-16.16L119.12-16.16Q118.69-16.42 118.55-16.63L118.55-16.63Q118.4-16.88 118.58-17.28L118.58-17.28Q119.7-19.8 120.67-22.82L120.67-22.82Q120.96-24.05 122.18-23.51L122.18-23.51Q123.3-23.04 122.83-21.92L122.83-21.92Q122.65-21.49 122.24-20.57 121.82-19.66 121.61-19.19L121.61-19.19Q120.89-17.57 120.35-16.49L120.35-16.49ZM163.19-2.23L163.19-2.23Q161.75-2.23 161.46-3.17L161.46-3.17Q161.24-3.85 161.71-4.21L161.71-4.21Q162.11-4.5 162.94-4.46L162.94-4.46Q164.12-4.46 164.38-4.5L164.38-4.5Q164.95-4.5 164.95-5L164.95-5 164.95-13.18 156.82-13.18Q155.7-13.18 155.7-14.33L155.7-14.33Q155.7-15.44 156.82-15.44L156.82-15.44 164.95-15.44 164.95-18.68 160.88-18.68Q159.77-18.68 159.77-19.8 159.77-20.92 160.88-20.92L160.88-20.92 171.72-20.92Q172.84-20.92 172.84-19.8 172.84-18.68 171.72-18.68L171.72-18.68 167.51-18.68 167.51-15.44 176.26-15.44Q177.37-15.44 177.37-14.33L177.37-14.33Q177.37-13.18 176.26-13.18L176.26-13.18 167.51-13.18 167.51-4.97Q167.51-3.92 167.29-3.42L167.29-3.42Q167.04-2.88 166.36-2.63L166.36-2.63Q165.46-2.3 163.19-2.23ZM157.36-4.57Q156.6-3.82 155.7-4.39L155.7-4.39Q154.48-5.18 155.59-6.19L155.59-6.19Q157.54-8.14 158.9-10.69L158.9-10.69Q159.41-11.63 160.42-11.38L160.42-11.38Q161.71-11.05 161.14-9.9L161.14-9.9Q160.42-8.5 159.37-7.06L159.37-7.06Q158.47-5.8 157.36-4.57L157.36-4.57ZM176.22-4.5Q175.61-4.21 175.25-4.25L175.25-4.25Q174.85-4.32 174.6-4.86L174.6-4.86Q173.48-6.91 171.18-9.68L171.18-9.68Q170.24-10.76 171.47-11.34L171.47-11.34Q172.3-11.74 172.91-11.12L172.91-11.12Q174.02-9.83 175.18-8.35L175.18-8.35Q176.33-6.8 176.8-5.98L176.8-5.98Q177.3-5.04 176.22-4.5L176.22-4.5ZM156.71-19.37Q155.52-18.68 154.87-19.73L154.87-19.73Q154.12-20.88 155.48-21.6L155.48-21.6Q158-23.08 160.29-25.07 162.58-27.07 164.05-29.09L164.05-29.09Q164.3-29.48 164.84-29.75 165.38-30.02 165.96-30.02L165.96-30.02 166.07-30.02Q167.26-30.02 167.98-29.12L167.98-29.12Q169.85-26.93 172.37-24.91L172.37-24.91Q174.67-23.11 176.94-21.92L176.94-21.92Q177.7-21.53 177.86-21.06 178.02-20.59 177.55-19.91L177.55-19.91Q176.83-18.79 175.57-19.51L175.57-19.51Q172.84-21.17 170.35-23.29L170.35-23.29Q167.65-25.52 166.1-27.61L166.1-27.61Q164.56-25.45 162.07-23.26L162.07-23.26Q159.52-20.99 156.71-19.37L156.71-19.37ZM165.35 2.38L165.35 2.38Q161.68 2.38 159.44 1.98L159.44 1.98Q157 1.51 155.12 0.36L155.12 0.36Q154.62 0.04 153.72-0.68L153.72-0.68Q152.21-1.91 151.67-1.91L151.67-1.91Q150.66-1.91 148.64 0.79L148.64 0.79Q148.03 1.66 147.35 1.84L147.35 1.84Q146.59 2.09 146.05 1.37L146.05 1.37Q145.66 0.86 145.76 0.22L145.76 0.22Q145.87-0.4 146.34-0.94L146.34-0.94Q148.72-3.49 150.48-4.21L150.48-4.21 150.48-14.62Q150.48-15.37 149.72-15.37L149.72-15.37 147.13-15.37Q145.84-15.37 145.84-16.7L145.84-16.7Q145.84-18 147.13-18L147.13-18 151.42-18Q152.21-18 152.66-17.55 153.11-17.1 153.11-16.31L153.11-16.31 153.11-4Q153.36-3.82 153.9-3.42L153.9-3.42Q155.02-2.56 155.81-2.05L155.81-2.05Q157.46-1.01 159.91-0.58L159.91-0.58Q161.93-0.25 165.38-0.25L165.38-0.25Q171.5-0.25 176.98-0.83L176.98-0.83Q177.98-0.94 178.27-0.59 178.56-0.25 178.27 0.76L178.27 0.76Q178.06 1.51 177.88 1.73L177.88 1.73Q177.62 1.98 176.94 2.02L176.94 2.02Q170.96 2.38 165.35 2.38ZM153.79-22.82Q153.22-22.39 152.78-22.41 152.35-22.43 151.92-23L151.92-23Q151.24-23.94 150.3-24.95L150.3-24.95Q149.44-25.96 148.25-27.14L148.25-27.14Q147.2-28.12 148.39-28.94L148.39-28.94Q149.26-29.56 150.08-28.8L150.08-28.8Q152.75-26.21 154.15-24.52L154.15-24.52Q154.84-23.65 153.79-22.82L153.79-22.82Z" transform="translate(-1.7177209854125977, 30.100000381469727)"></path></g> <!----> <!----> <!----> <!----> <!----> <!----> <!----></g></g> <g data-gra="path-slogan" fill-rule="" class="tp-slogan iconsvg-slogansvg" fill="#0f0f0f" transform="translate(5,38.92499923706055)"><rect x="0" height="1" y="3.9750003814697266" width="13.0128173828125"></rect> <rect height="1" y="3.9750003814697266" width="13.0128173828125" x="153.68446350097656"></rect> <g transform="translate(16.0128173828125,0)"><g transform="scale(1)"><path d="M7.17-6.09L7.17-6.09L6.09-6.09Q6-7.73 3.94-7.83L3.94-7.83Q2.02-7.78 2.02-6.33L2.02-6.33Q2.02-5.39 3.05-5.25L3.05-5.25L5.48-4.69Q7.41-4.22 7.41-2.34L7.41-2.34Q7.36 0.05 4.03 0.14L4.03 0.14Q2.20 0.14 1.45-0.61L1.45-0.61Q0.52-1.31 0.56-2.77L0.56-2.77L1.69-2.77Q1.73-0.80 4.03-0.75L4.03-0.75Q6.28-0.80 6.33-2.20L6.33-2.20Q6.52-3.38 4.45-3.75L4.45-3.75L2.67-4.13Q0.84-4.64 0.84-6.19L0.84-6.19Q0.98-8.72 3.84-8.81L3.84-8.81Q7.08-8.81 7.17-6.09ZM10.03-5.06L14.53-5.06L14.53-8.58L15.70-8.58L15.70 0L14.53 0L14.53-3.98L10.03-3.98L10.03 0L8.86 0L8.86-8.58L10.03-8.58L10.03-5.06ZM17.67-8.58L18.84-8.58L18.84 0L17.67 0L17.67-8.58ZM20.11-1.92L20.11-2.77L21.19-2.77L21.19-2.16Q21.19-0.75 22.50-0.75L22.50-0.75Q23.86-0.75 23.86-2.25L23.86-2.25L23.86-8.58L25.03-8.58L25.03-2.30Q24.98 0.09 22.55 0.14L22.55 0.14Q20.25 0.09 20.11-1.92L20.11-1.92ZM27-8.58L28.17-8.58L28.17 0L27 0L27-8.58ZM35.81 0L34.97-2.48L31.50-2.48L30.61 0L29.44 0L32.67-8.58L33.98-8.58L37.08 0L35.81 0ZM33.23-7.31L31.88-3.52L34.55-3.52L33.28-7.31L33.23-7.31ZM38.95-1.03L44.25-1.03L44.25 0L37.50 0L37.50-0.94L42.75-7.59L37.88-7.59L37.88-8.58L44.25-8.58L44.25-7.59L38.95-1.03ZM46.55-5.06L51.05-5.06L51.05-8.58L52.22-8.58L52.22 0L51.05 0L51.05-3.98L46.55-3.98L46.55 0L45.38 0L45.38-8.58L46.55-8.58L46.55-5.06ZM59.67-3.19L59.67-8.58L60.84-8.58L60.84-3.05Q60.70 0.05 57.33 0.14L57.33 0.14Q54.19 0.05 54.05-2.86L54.05-2.86L54.05-8.58L55.22-8.58L55.22-3.19Q55.27-0.84 57.38-0.80L57.38-0.80Q59.67-0.84 59.67-3.19L59.67-3.19ZM68.30 0L67.45-2.48L63.98-2.48L63.09 0L61.92 0L65.16-8.58L66.47-8.58L69.56 0L68.30 0ZM65.72-7.31L64.36-3.52L67.03-3.52L65.77-7.31L65.72-7.31ZM72-8.58L76.31-1.64L76.31-8.58L77.44-8.58L77.44 0L76.13 0L71.77-6.94L71.72-6.94L71.72 0L70.59 0L70.59-8.58L72-8.58ZM85.64-3.61L83.02-3.61L83.02-4.59L86.77-4.59L86.77 0L86.02 0L85.73-1.08Q84.75 0.09 82.92 0.14L82.92 0.14Q81.19 0.14 80.25-0.75L80.25-0.75Q78.84-2.06 78.89-4.36L78.89-4.36Q79.22-8.63 82.97-8.81L82.97-8.81Q86.16-8.63 86.63-6L86.63-6L85.50-6Q85.03-7.78 82.92-7.83L82.92-7.83Q80.25-7.64 80.11-4.31L80.11-4.31Q80.11-0.75 82.97-0.75L82.97-0.75Q84-0.75 84.75-1.31L84.75-1.31Q85.69-2.06 85.64-3.61L85.64-3.61ZM95.11-7.64L93.05-7.64L93.05-4.97L95.11-4.97Q96.94-4.92 96.89-6.38L96.89-6.38Q96.89-7.64 95.11-7.64L95.11-7.64ZM95.58 0L91.88 0L91.88-8.58L95.67-8.58Q97.97-8.48 98.06-6.42L98.06-6.42Q98.06-5.16 96.94-4.64L96.94-4.64Q98.53-4.08 98.53-2.53L98.53-2.53Q98.39-0.09 95.58 0L95.58 0ZM95.30-3.98L93.05-3.98L93.05-0.98L95.53-0.98Q97.31-1.03 97.36-2.53L97.36-2.53Q97.36-3.98 95.30-3.98L95.30-3.98ZM100.03-8.58L101.20-8.58L101.20 0L100.03 0L100.03-8.58ZM104.58-8.58L108.89-1.64L108.89-8.58L110.02-8.58L110.02 0L108.70 0L104.34-6.94L104.30-6.94L104.30 0L103.17 0L103.17-8.58L104.58-8.58ZM118.22-3.61L115.59-3.61L115.59-4.59L119.34-4.59L119.34 0L118.59 0L118.31-1.08Q117.33 0.09 115.50 0.14L115.50 0.14Q113.77 0.14 112.83-0.75L112.83-0.75Q111.42-2.06 111.47-4.36L111.47-4.36Q111.80-8.63 115.55-8.81L115.55-8.81Q118.73-8.63 119.20-6L119.20-6L118.08-6Q117.61-7.78 115.50-7.83L115.50-7.83Q112.83-7.64 112.69-4.31L112.69-4.31Q112.69-0.75 115.55-0.75L115.55-0.75Q116.58-0.75 117.33-1.31L117.33-1.31Q118.27-2.06 118.22-3.61L118.22-3.61ZM123.33-7.59L120.42-7.59L120.42-8.58L127.36-8.58L127.36-7.59L124.45-7.59L124.45 0L123.33 0L123.33-7.59ZM134.06-3.19L134.06-8.58L135.23-8.58L135.23-3.05Q135.09 0.05 131.72 0.14L131.72 0.14Q128.58 0.05 128.44-2.86L128.44-2.86L128.44-8.58L129.61-8.58L129.61-3.19Q129.66-0.84 131.77-0.80L131.77-0.80Q134.06-0.84 134.06-3.19L134.06-3.19Z" transform="translate(-0.5602678571428572, 8.8125)"></path></g></g></g></g></g><defs v-gra="od"></defs></svg>